<?xml version="1.0" encoding="UTF-8" standalone="no"?>
<svg
   width="30.024296"
   height="30.014772"
   viewBox="0 0 60.048592 60.029545"
   version="1.1"
   id="svg6"
   xmlns="http://www.w3.org/2000/svg"
   xmlns:svg="http://www.w3.org/2000/svg">
  <defs
     id="defs10" />
  <path
     fill="currentColor"
     d="m 60.021133,30.178732 c 0,-2.852 -0.239,-6.468 -1.421,-9.975 2.317,-4.364 1.584,-18.6399998 -0.675,-19.97499982 -2.075,-1.228 -11.511,3.40000002 -15.704,7.53400002 a 37.339,37.339 0 0 0 -4.927,-0.314 37.43,37.43 0 0 0 -4.87,0.307 c -4.207,-4.024 -13.723,-8.69100002 -15.671,-7.54000002 -2.38,1.40900002 -3.09,15.25099982 -0.725,19.88199982 -1.213,3.54 -1.458,7.201 -1.458,10.081 0,1.313 1.556,3.711 4.192,6.147 l -0.013,-0.012 c -0.557,0.564 -3.272,3.702 -1.785,10.008 a 8.433,8.433 0 0 1 -1.931,-0.117 c -1.328,-0.244 -2.639,-0.828 -3.893,-1.738 -1.105,-0.803 -2.1530004,-1.826 -3.2040004,-3.129 -0.445,-0.564 -0.919,-1.182 -1.338,-1.85 a 22.316,22.316 0 0 1 -1.104,-1.963 c -0.714,-1.444 -1.154,-2.792 -1.306,-4.005 a 6.163,6.163 0 0 1 0.021,-1.832 c 0.094,-0.543 0.282,-1.021 0.546,-1.383 0.254,-0.35 0.565,-0.586 0.932,-0.705 0.307,-0.102 0.647,-0.111 0.985,-0.031 0.77,0.176 1.554,0.838 2.1,1.773 0.546,0.924 0.918,2.141 1.079,3.52 a 2.786,2.786 0 0 0 1.0730004,1.886 2.97,2.97 0 0 0 2.135,0.607 c 0.216,-0.021 0.429,-0.066 0.633,-0.133 1.287,-0.422 2.08,-1.634 1.929,-2.942 a 3.634,3.634 0 0 0 -0.043,-0.264 l -0.006,-0.031 c -0.473,-2.146 -1.233,-3.92 -2.329,-5.424 -0.695,-0.943 -1.497,-1.725 -2.385,-2.324 -1.0440004,-0.707 -2.2260004,-1.16 -3.4110004,-1.307 -1.299,-0.168 -2.668,0.055 -3.801,0.621 a 6.315,6.315 0 0 0 -2.67400001,2.523 c -0.53,0.926 -0.843,1.98 -0.929,3.133 a 10.06,10.06 0 0 0 0.242,2.936 c 0.372,1.629 1.04600001,3.204 2.12300001,4.96 0.43,0.695 0.915,1.396 1.483,2.141 l 0.206,0.268 c 0.442,0.572 0.9,1.164 1.398,1.727 1.281,1.469 2.568,2.623 3.931,3.531 1.6360004,1.094 3.4210004,1.803 5.1650004,2.049 1.011,0.151 2.068,0.136 3.13,-0.006 a 27.74,27.74 0 0 0 1.127,2.607 c 0.68,1.378 3.219,2.639 5.723,3.189 0.412,1.721 0.959,3.076 1.694,3.8 0.337,0.332 0.805,0.608 1.347,0.841 l -0.018,0.03 0.979,0.322 0.002,-0.009 a 12.2,12.2 0 0 0 2.56,0.408 l -0.003,0.028 h 1.033 l -10e-4,-0.006 c 1.02,-0.015 2.021,-0.136 2.895,-0.378 l 0.003,0.019 0.975,-0.332 -0.021,-0.033 c 0.52,-0.231 0.965,-0.512 1.279,-0.857 0.314,0.346 0.76,0.626 1.279,0.857 l -0.021,0.033 0.975,0.332 0.003,-0.019 c 0.872,0.242 1.874,0.363 2.893,0.378 l -10e-4,0.006 h 1.033 l -0.004,-0.026 a 12.24,12.24 0 0 0 2.563,-0.409 l 0.001,0.01 0.977,-0.322 -0.017,-0.03 c 0.541,-0.231 1.01,-0.509 1.347,-0.841 0.734,-0.724 1.281,-2.079 1.694,-3.8 2.503,-0.55 5.043,-1.812 5.724,-3.189 4.798,-9.721 0.808,-14.387 0.099,-15.106 2.63,-2.434 4.181,-4.827 4.181,-6.137 m -5.83,-23.3259998 c 0.544,0.321 1.111,4.0989998 1.044,7.2789998 -1.719,-2.018 -4.049,-3.748 -7.186,-4.9429998 2.551,-1.507 5.589,-2.663 6.142,-2.336 m -6.676,14.3779998 c -0.423,0.47 -0.76,1.619 -0.76,3.45 0,4.926 2.436,4.926 2.436,0 0,-2.114 -0.448,-3.315 -0.961,-3.615 4.062,-0.731 6.236,2.563 6.236,2.563 0,0 -0.188,4.262 -4.594,5.406 -4.408,1.145 -6.77,-2.457 -6.77,-2.457 0,0 0.191,-4.13 4.413,-5.347 m -16.027,5.347 c 0,0 -2.362,3.602 -6.77,2.457 -4.406,-1.145 -4.594,-5.406 -4.594,-5.406 0,0 2.175,-3.295 6.236,-2.563 -0.512,0.3 -0.96,1.501 -0.96,3.615 0,4.926 2.434,4.926 2.434,0 0,-1.831 -0.336,-2.98 -0.759,-3.45 4.222,1.217 4.413,5.347 4.413,5.347 m -11.001,-19.7359998 c 0.5,-0.296 3.51,0.864 6.061,2.345 -3.111,1.1859998 -5.432,2.8959998 -7.146,4.8909998 -0.083,-3.171 0.493,-6.8869998 1.085,-7.2359998 m 1.226,45.4799998 c 0.061,-0.657 0.992,-0.378 2.414,-0.014 0.107,0.687 0.228,1.339 0.363,1.951 -1.71,-0.463 -2.843,-1.201 -2.777,-1.937 m 6.127,6.533 c -0.731,-0.329 -1.188,-0.745 -1.188,-1.205 0,-0.618 0.804,-0.48 2.03,-0.262 l -0.842,1.467 m 3.369,0.683 c -0.964,-0.043 -1.84,-0.18 -2.564,-0.391 l 0.263,-1.719 c 0.743,0.131 1.632,0.267 2.585,0.295 l -0.284,1.815 m 0.881,0.012 -0.285,-1.813 0.011,10e-4 c 1.077,0 2.077,-0.163 2.904,-0.31 l 0.263,1.72 c -0.809,0.235 -1.801,0.38 -2.893,0.402 m 3.667,-0.679 -0.89,-1.468 c 1.275,-0.228 2.112,-0.385 2.112,0.247 0.001,0.467 -0.47,0.889 -1.222,1.221 m 1.537,-5.963 -4.429,-9.307 -0.008,-0.002 a 23.48,23.48 0 0 0 4.437,0.433 c 1.517,0 2.997,-0.156 4.431,-0.432 l -4.431,9.308 m 1.539,5.963 c -0.752,-0.331 -1.224,-0.754 -1.224,-1.221 0,-0.632 0.837,-0.475 2.111,-0.247 l -0.887,1.468 m 3.666,0.679 c -1.092,-0.021 -2.084,-0.167 -2.892,-0.4 l 0.261,-1.721 c 0.828,0.146 1.828,0.31 2.907,0.31 h 0.007 l -0.283,1.811 m 0.88,-0.012 -0.285,-1.814 c 0.955,-0.028 1.844,-0.164 2.588,-0.295 l 0.265,1.719 c -0.727,0.21 -1.603,0.348 -2.568,0.39 m 3.371,-0.682 -0.841,-1.468 c 1.227,-0.219 2.03,-0.356 2.03,0.262 0,0.46 -0.458,0.876 -1.189,1.206 m 3.349,-4.597 c 0.136,-0.611 0.257,-1.265 0.362,-1.951 1.424,-0.364 2.356,-0.644 2.415,0.014 0.068,0.736 -1.065,1.474 -2.777,1.937 m -12.805,-11.012 c -9.209,0 -18.13,-7.62 -18.131,-7.62 0,0 8.36,-2.701 11.497,-5.084 1.979,-1.504 4.169,-6.486 6.634,-6.486 2.465,0 4.654,4.982 6.635,6.486 3.137,2.383 11.498,5.084 11.498,5.084 0,0 -8.922,7.62 -18.133,7.62"
     id="path2" />
  <path
     fill="currentColor"
     d="m 41.351133,37.922732 c -0.826,-0.059 -1.607,-0.318 -2.236,-0.814 -0.627,-0.477 -1.09,-1.159 -1.225,-1.911 l -0.044,-0.247 c 0.449,-0.111 0.947,-0.362 1.464,-0.86 1.172,-1.127 1.514,-2.436 1.07,-2.965 -0.617,-0.738 -2.518,-0.795 -3.086,-0.795 -0.566,0 -2.469,0.057 -3.088,0.795 -0.439,0.529 -0.098,1.838 1.074,2.965 0.517,0.498 1.015,0.749 1.462,0.86 l -0.044,0.247 c -0.137,0.75 -0.596,1.435 -1.227,1.911 -0.613,0.494 -1.436,0.754 -2.215,0.813 -0.863,0.039 -1.672,-0.139 -2.416,-0.582 a 3.795,3.795 0 0 1 -1.663,-2.021 c 0.044,0.953 0.567,1.88 1.317,2.519 0.744,0.639 1.764,1.016 2.723,1.057 a 4.737,4.737 0 0 0 2.922,-0.822 4.328,4.328 0 0 0 1.154,-1.203 c 0.311,0.477 0.703,0.889 1.156,1.201 a 4.735,4.735 0 0 0 2.9,0.824 4.59,4.59 0 0 0 2.742,-1.057 c 0.75,-0.641 1.273,-1.565 1.318,-2.519 a 3.798,3.798 0 0 1 -1.662,2.021 c -0.73,0.442 -1.578,0.622 -2.396,0.583"
     id="path4" />
  <path
     style="opacity:0.820946;fill:#ffffff;stroke:#000000;stroke-width:0.138667"
     d="m 30.775849,59.946024 c -2.837904,-0.339902 -4.254206,-1.00875 -5.090052,-2.40378 -0.32601,-0.544114 -0.669748,-1.418138 -0.9024,-2.294546 -0.1663,-0.62643 -0.18278,-0.654032 -0.42986,-0.719548 -1.539092,-0.408116 -3.158066,-1.089396 -4.08966,-1.720968 -1.00055,-0.678322 -1.406206,-1.281378 -2.231112,-3.316818 l -0.283542,-0.699636 -0.411215,0.0341 c -0.984339,0.08162 -2.527911,0.0136 -3.286993,-0.14476 -2.032914,-0.424228 -3.980031,-1.380462 -5.8397224,-2.86791 -1.8926056,-1.513776 -4.380385,-4.446302 -5.8666928,-6.915502 -1.61789821,-2.68781 -2.38104101,-5.204214 -2.26348281,-7.46366 0.2723266,-5.23407 5.21609721,-8.052232 9.90087961,-5.643928 2.5759674,1.324228 4.4616544,3.9844 5.4030074,7.622122 0.258881,1.000408 0.272398,1.344724 0.07739,1.971282 -0.500541,1.608244 -2.390412,2.399492 -3.964201,1.659724 -0.965643,-0.453906 -1.455457,-1.226588 -1.6949844,-2.673842 -0.3035,-1.833788 -0.829933,-3.046948 -1.705513,-3.930346 -0.5996272,-0.60498 -1.0891688,-0.874386 -1.677516,-0.923178 -1.427132,-0.11834 -2.2893706,1.053094 -2.294762,3.117676 -0.0079,3.024406 2.098021,7.191152 5.210519,10.309472 1.7837174,1.787054 3.7104154,2.91423 5.5911674,3.271002 0.607466,0.11524 1.931116,0.17364 2.015812,0.08894 0.02366,-0.02366 -0.01156,-0.32405 -0.07826,-0.667534 -0.241496,-1.243574 -0.297291,-1.965806 -0.255228,-3.303766 0.03251,-1.034196 0.0821,-1.492688 0.228548,-2.113206 0.320046,-1.356084 0.828721,-2.471938 1.564441,-3.43183 l 0.372616,-0.486156 -0.737928,-0.73912 c -1.679426,-1.68214 -3.015949,-3.584572 -3.329394,-4.739124 -0.102365,-0.37705 -0.106379,-2.16329 -0.0079,-3.509434 0.176765,-2.415956 0.468937,-4.122536 1.060531,-6.19459 l 0.292586,-1.02478 -0.228992,-0.560126 C 14.971877,17.448081 14.567232,14.167412 14.64753,9.9945042 14.747,4.8253774 15.535745,1.171078 16.745419,0.27491818 c 1.179439,-0.8737602 6.760026,1.27346322 11.766272,4.52726882 1.285904,0.8357726 2.269878,1.578831 3.664692,2.7674336 L 32.434709,7.789754 33.246785,7.70022 c 0.446642,-0.049244 1.5377,-0.12787 2.424574,-0.174728 1.672354,-0.088356 3.879142,-0.020552 5.719302,0.175728 l 0.841234,0.08973 0.592728,-0.5316858 c 3.406216,-3.055418 9.622476,-6.41256922 13.10904,-7.07965922 1.116408,-0.2136042 1.808866,-0.1186676 2.20603,0.3024492 0.999274,1.05954042 1.69777,4.72821642 1.817634,9.54667782 0.10178,4.091613 -0.366424,7.852518 -1.217032,9.775892 l -0.1751,0.395914 0.223214,0.744286 c 0.695702,2.319768 1.07069,4.857394 1.168574,7.907976 0.04208,1.311408 0.03102,1.57602 -0.08214,1.96444 -0.364158,1.250064 -1.400552,2.74771 -3.114272,4.50029 -0.510472,0.522048 -0.92813,0.971876 -0.92813,0.99962 0,0.02774 0.1725,0.26288 0.383326,0.522522 0.472822,0.582296 1.133126,1.912868 1.383678,2.788232 0.87238,3.047868 0.389292,6.658906 -1.443926,10.793166 -0.43334,0.977266 -0.576488,1.221112 -0.95334,1.623966 -0.541834,0.579224 -1.229538,1.044926 -2.253708,1.526174 -0.755434,0.354972 -2.15926,0.846284 -2.709228,0.948178 -0.259446,0.04806 -0.27699,0.07088 -0.367714,0.478024 -0.1415,0.634984 -0.507704,1.632198 -0.848062,2.309308 -0.685292,1.36333 -1.894232,2.088188 -4.173884,2.502582 -1.042148,0.18944 -3.413252,0.19312 -4.375632,0.0068 -1.337166,-0.258904 -2.183326,-0.602286 -2.911732,-1.18161 l -0.27022,-0.214918 -0.333552,0.26807 c -0.98012,0.787708 -2.55518,1.216516 -4.63544,1.261996 -0.70566,0.0154 -1.401886,0.0138 -1.54717,-0.0036 z m 2.490568,-0.44782 c 0.608376,-0.0554 1.60091,-0.252632 1.686148,-0.335068 0.0931,-0.09004 -0.17532,-1.738178 -0.283078,-1.738178 -0.0486,0 -0.4606,0.04894 -0.915536,0.10876 -0.454936,0.05982 -1.090286,0.13062 -1.411888,0.15736 -0.54883,0.04564 -0.582634,0.05864 -0.55056,0.212004 0.0188,0.08986 0.07152,0.418104 0.11716,0.729426 0.15648,1.067232 0.11436,0.989764 0.515074,0.947502 0.19366,-0.02042 0.572864,-0.05724 0.842676,-0.0818 z m 9.407498,-0.809094 0.14172,-0.924528 -0.529324,-0.05682 c -0.291128,-0.03126 -0.947522,-0.11116 -1.458656,-0.17758 -0.511134,-0.06642 -0.945012,-0.10508 -0.964174,-0.08592 -0.04654,0.04654 -0.25445,1.324376 -0.256118,1.574152 -0.0013,0.18778 0.03028,0.203522 0.65906,0.328938 0.363206,0.07244 0.966036,0.15716 1.339622,0.18826 0.373584,0.0311 0.7348,0.06138 0.802702,0.06728 0.1013,0.0088 0.1489,-0.15522 0.265174,-0.913772 z m -11.40896,0.679244 c 0.04406,-0.19106 0.26484,-1.572812 0.265308,-1.660376 1.52e-4,-0.03114 -0.18348,-0.0566 -0.408126,-0.0566 -0.224636,0 -0.804188,-0.0544 -1.287894,-0.12092 -0.483706,-0.0665 -0.900224,-0.10016 -0.925596,-0.07478 -0.05722,0.05722 -0.313918,1.649698 -0.276332,1.714334 0.015,0.02582 0.32515,0.10174 0.68919,0.16874 0.920244,0.16932 0.984304,0.17756 1.471776,0.18914 0.390692,0.0092 0.43631,-0.0062 0.471674,-0.159538 z m 14.030476,-0.02906 c 0.325126,-0.07144 0.607358,-0.17562 0.629072,-0.232204 0.04068,-0.10602 -0.1697,-1.596262 -0.234508,-1.661066 -0.02006,-0.02006 -0.432228,0.018 -0.915934,0.08444 -0.483706,0.0665 -1.063258,0.12092 -1.287894,0.12092 -0.273664,0 -0.40843,0.03074 -0.40843,0.09316 0,0.05124 0.0579,0.48043 0.12864,0.953766 l 0.12864,0.860608 0.685356,-0.04502 c 0.376946,-0.02476 0.950716,-0.10332 1.275044,-0.1746 z m -8.628964,-1.015746 c 0.326964,-0.323092 0.42763,-0.691576 0.25917,-0.948676 -0.10188,-0.1555 -0.17476,-0.17632 -0.617042,-0.17632 -0.51876,0 -1.457274,0.13438 -1.457274,0.208664 0,0.052 0.31853,0.599796 0.659126,1.133552 l 0.254492,0.398818 0.313524,-0.1724 c 0.17244,-0.09482 0.43704,-0.294456 0.588004,-0.44363 z m 2.635884,-0.15304 c 0.253804,-0.420134 0.451434,-0.7725 0.439178,-0.783032 -0.06716,-0.05772 -1.078702,-0.18894 -1.456484,-0.18894 -0.494934,0 -0.716742,0.13324 -0.716742,0.430538 0,0.22917 0.16136,0.541276 0.389056,0.75253 0.13736,0.12744 0.798916,0.547146 0.869878,0.55187 0.0076,5.3e-4 0.22131,-0.342836 0.475114,-0.76297 z m -10.993072,-0.04744 0.417848,-0.73585 -0.202054,-0.0596 c -0.11112,-0.03278 -0.516488,-0.08024 -0.900798,-0.10546 -0.618412,-0.0406 -0.716882,-0.02946 -0.856518,0.09692 -0.203856,0.18448 -0.15586,0.641516 0.09624,0.916388 0.20514,0.22367 0.806142,0.623456 0.937244,0.623456 0.0496,0 0.278218,-0.331132 0.508032,-0.735848 z m 18.965466,0.490566 c 0.623232,-0.418804 0.87064,-0.960064 0.583748,-1.277076 -0.09462,-0.10456 -0.23492,-0.13802 -0.578724,-0.13802 -0.448182,0 -1.40958,0.13578 -1.40958,0.19908 0,0.018 0.04682,0.10786 0.10402,0.1998 0.05722,0.09194 0.245504,0.413384 0.418424,0.714326 0.17292,0.300944 0.360008,0.54717 0.41575,0.54717 0.05574,0 0.265604,-0.11038 0.46636,-0.245282 z M 24.485795,54.0476 c -0.02392,-0.11416 -0.10086,-0.530188 -0.17098,-0.924528 -0.0701,-0.39434 -0.16488,-0.75516 -0.21058,-0.801822 -0.14448,-0.1475 -1.420942,-0.416222 -1.858956,-0.391356 -0.365088,0.02072 -0.422882,0.04704 -0.51169,0.233056 -0.14326,0.300062 -0.0068,0.651794 0.397094,1.02417 0.375914,0.346508 0.747972,0.55035 1.55082,0.849662 0.7464,0.278268 0.860662,0.279804 0.804284,0.0108 z m 26.651062,-0.09258 c 1.103484,-0.42555 1.7522,-1.016128 1.7522,-1.595172 0,-0.348666 -0.1391,-0.444324 -0.646072,-0.444324 -0.349708,0 -1.579408,0.255352 -1.737208,0.360736 -0.06912,0.04616 -0.409172,1.62961 -0.409172,1.905264 0,0.12484 0.296738,0.06022 1.040252,-0.226504 z M 39.542171,48.288464 c 1.19557,-2.50889 2.174508,-4.606076 2.17542,-4.660412 9.12e-4,-0.05434 -0.02592,-0.08174 -0.05964,-0.0609 -0.03372,0.02084 -0.5856,0.11492 -1.226414,0.209054 -2.042038,0.299998 -5.551964,0.2215 -7.276278,-0.16274 -0.16492,-0.03674 -0.309352,-0.0573 -0.32098,-0.04568 -0.04908,0.04908 4.400672,9.321786 4.464268,9.302966 0.03842,-0.0114 1.048058,-2.073402 2.243628,-4.582292 z m 0.296566,-5.208782 c 3.704426,-0.492844 8.033208,-2.246206 12.182396,-4.93444 1.637482,-1.060916 3.481428,-2.444554 3.37822,-2.534906 -0.0316,-0.02766 -0.617842,-0.246582 -1.302748,-0.486472 -3.202974,-1.121856 -5.446826,-2.043956 -7.54717,-3.10147 -2.558388,-1.288138 -2.999914,-1.66825 -4.903298,-4.22128 -1.500552,-2.012706 -2.56255,-3.127544 -3.340102,-3.506286 -0.693232,-0.337672 -1.27676,-0.34432 -1.959188,-0.02232 -0.961276,0.453568 -1.652618,1.180254 -3.57441,3.757142 -1.30658,1.751964 -1.82446,2.297342 -2.749648,2.895656 -1.852264,1.197846 -5.77784,2.924712 -9.623118,4.233216 -0.62199,0.211658 -1.160224,0.414162 -1.196074,0.450012 -0.151,0.151 3.3835,2.631806 5.279372,3.70549 4.87373,2.760122 9.4003,4.093892 13.38722,3.944592 0.47736,-0.0178 1.363206,-0.0984 1.968548,-0.17894 z M 27.643775,29.160018 c 1.25559,-0.264704 2.283532,-0.853078 3.3095,-1.894294 0.27888,-0.283024 0.524292,-0.583734 0.54536,-0.668244 0.05672,-0.227554 -0.1639,-1.18422 -0.42145,-1.827404 -0.459684,-1.14801 -1.270086,-2.149014 -2.270078,-2.803986 -0.46801,-0.306536 -1.633968,-0.812634 -1.706066,-0.740538 -0.0194,0.0194 0.0178,0.11654 0.08284,0.215764 0.381404,0.582096 0.588584,1.751006 0.586818,3.310826 -0.002,1.82479 -0.351936,3.15606 -0.917136,3.489752 -0.225734,0.13328 -0.240716,0.13328 -0.466944,0 -1.175162,-0.692292 -1.29404,-5.801096 -0.16248,-6.982732 l 0.1949,-0.20353 -0.21782,-0.05714 c -0.1198,-0.03142 -0.591404,-0.0539 -1.048008,-0.04992 -1.67094,0.0146 -3.126862,0.634424 -4.372134,1.861474 -0.74683,0.735904 -0.742234,0.723808 -0.578568,1.522652 0.419986,2.049928 1.712676,3.653518 3.5589,4.41484 0.43633,0.17992 0.966434,0.329578 1.693688,0.478134 0.370738,0.07574 1.708366,0.0356 2.18868,-0.06566 z m 22.399118,-0.14178 c 1.788664,-0.534134 3.026698,-1.546254 3.795268,-3.102712 0.348006,-0.704754 0.635704,-1.67477 0.635936,-2.144148 1.52e-4,-0.243576 -0.07432,-0.34337 -0.73697,-0.987928 -0.81483,-0.792582 -1.507044,-1.230308 -2.432976,-1.538506 -0.936534,-0.311728 -2.09338,-0.402318 -2.926526,-0.22917 l -0.1718,0.0357 0.226064,0.281308 c 0.476114,0.59246 0.691514,1.646834 0.68952,3.375192 -0.0024,2.01527 -0.344252,3.237794 -1.005246,3.594126 -0.18428,0.09934 -0.534304,-0.09636 -0.721868,-0.403618 -0.75214,-1.232084 -0.806408,-4.767446 -0.09528,-6.207522 0.12248,-0.248038 0.213282,-0.460388 0.201778,-0.471894 -0.0116,-0.0116 -0.206426,0.0429 -0.433158,0.12092 -1.606608,0.552754 -2.86051,1.745458 -3.523342,3.351384 -0.2733,0.662164 -0.499262,1.64955 -0.43557,1.903318 0.06862,0.273404 1.075634,1.258584 1.698016,1.661202 1.214126,0.785414 2.08916,1.028782 3.55403,0.988462 0.824528,-0.0227 1.145382,-0.06582 1.682138,-0.226114 z m 5.227356,-16.102712 c -0.118,-2.85635 -0.500398,-5.3084438 -0.930118,-5.9642796 -0.11646,-0.177758 -0.14984,-0.185174 -0.654824,-0.145536 -0.548052,0.043018 -1.494792,0.340252 -2.683042,0.8423558 -0.843974,0.3566264 -2.887476,1.416516 -2.916622,1.512744 -0.0126,0.04151 0.335374,0.225494 0.773212,0.408854 2.10894,0.8831908 4.058702,2.2116298 5.577372,3.8000488 0.415094,0.434158 0.784312,0.794011 0.820482,0.799672 0.03692,0.0058 0.04286,-0.544294 0.0136,-1.253858 z M 21.442745,12.151368 c 1.270114,-1.036419 3.21886,-2.1851058 4.635104,-2.7321608 0.259498,-0.100236 0.461196,-0.214097 0.44822,-0.253024 -0.0379,-0.113678 -1.884422,-1.055028 -3.033238,-1.5463264 -1.278872,-0.5469188 -2.313848,-0.8546796 -2.765282,-0.822285 -0.306534,0.021998 -0.340582,0.04686 -0.497434,0.3632358 -0.466512,0.9409816 -0.850296,3.5941034 -0.850428,5.8790694 l -6.4e-5,1.086616 0.736748,-0.746993 c 0.40521,-0.410847 1.002078,-0.963506 1.326374,-1.228132 z"
     id="path377" />
  <path
     style="opacity:0.820946;fill:#ffffff;stroke:#000000;stroke-width:0.138667"
     d="m 32.300507,38.706304 c -1.357256,-0.355578 -2.431762,-1.282668 -2.892744,-2.495874 -0.0813,-0.21398 -0.13352,-0.403366 -0.11602,-0.42086 0.0174,-0.0174 0.12162,0.12144 0.231388,0.30875 0.812894,1.387098 2.804536,2.16358 4.46328,1.740102 1.402458,-0.35805 2.579838,-1.474492 2.729182,-2.587928 0.0398,-0.296794 0.03942,-0.297298 -0.36504,-0.483858 -0.579024,-0.267074 -1.14802,-0.7457 -1.578402,-1.327718 -0.46067,-0.62298 -0.675544,-1.17082 -0.675544,-1.72236 0,-0.370512 0.02698,-0.444914 0.230046,-0.634614 0.48271,-0.45092 1.499554,-0.689126 2.938462,-0.688368 1.576498,8.32e-4 2.589808,0.25087 3.024892,0.746404 0.227208,0.258776 0.238208,0.298962 0.202748,0.74072 -0.09234,1.150352 -1.328204,2.598392 -2.564648,3.004952 -0.17134,0.05634 -0.117,0.374574 0.17276,1.011648 0.676316,1.486972 2.586904,2.346062 4.38826,1.97317 0.954004,-0.19748 1.981132,-0.883898 2.520004,-1.684078 0.313354,-0.465302 0.334048,-0.319318 0.04184,0.29517 -0.467142,0.98237 -1.343692,1.74697 -2.439732,2.128134 -1.742224,0.605886 -3.943106,-0.0088 -5.001656,-1.396822 l -0.290094,-0.380398 -0.552948,0.587788 c -1.149636,1.22207 -2.84583,1.710508 -4.466028,1.28604 z"
     id="path381" />
</svg>
